# xmcd
#
# Track frame offsets:
#	150
#	21976
#	41487
#	69207
#	94229
#	114282
#	138369
#	160003
#	183092
#	205021
#	225238
#	249589
#	271297
#	287123
#
# Disc length: 4106 seconds
#
# Revision: 1
# Processed by: cddbd v1.4PL0 Copyright (c) Steve Scherf et al.
# Submitted via: CDmax 1.8
#
DISCID=b210080e
DTITLE=Various Artist - Moods
DYEAR=2000
DGENRE=R and B Soul
TTITLE0=Angel in disguise - Brandy
TTITLE1=Maria, Maria - Carlos Santana/w The Product G and B
TTITLE2=Feel like makin' love -D'Angelo
TTITLE3=Shootin' up in vain - Eagle Eye Cherry
TTITLE4=Dust in the wind - Eric Benet
TTITLE5=Love the hurt away - Eric Benet
TTITLE6=Is it love that we're missin' - Glora Estefan
TTITLE7=Second Guessin' - Jonny Lang
TTITLE8=Wander this world - Jonny Lang
TTITLE9=Did you ever think - R. Kely
TTITLE10=Heaven's Girl - R. Kelly w/ Naomi Campbell
TTITLE11=It's not right - Whitney Houston
TTITLE12=In my buiness - Whitney Houston/ Missy Elliot
TTITLE13=Heartbreak Hotel - Whitney Houston
EXTD=
EXTT0=
EXTT1=
EXTT2=
EXTT3=
EXTT4=
EXTT5=
EXTT6=
EXTT7=
EXTT8=
EXTT9=
EXTT10=
EXTT11=
EXTT12=
EXTT13=
PLAYORDER=
